<svg width="16" height="12" viewBox="0 0 16 12" fill="none" xmlns="http://www.w3.org/2000/svg">
<path d="M0.978125 8.82C1.87813 7.68 2.48813 6.69 2.80813 5.85L1.06813 3.24C1.06813 2.78 1.18813 2.33 1.42813 1.89C1.68813 1.43 2.04813 1.06 2.50813 0.779999C2.96813 0.499999 3.48813 0.359999 4.06813 0.359999C4.92813 0.359999 5.65813 0.669999 6.25813 1.29C6.85813 1.89 7.15813 2.66 7.15813 3.6C7.15813 4.7 6.71813 5.95 5.83813 7.35C4.95813 8.75 3.57813 10.11 1.69813 11.43L0.978125 8.82ZM8.83813 8.82C9.73813 7.68 10.3481 6.69 10.6681 5.85L8.92813 3.24C8.92813 2.78 9.04813 2.33 9.28813 1.89C9.54813 1.43 9.90813 1.06 10.3681 0.779999C10.8281 0.499999 11.3481 0.359999 11.9281 0.359999C12.7881 0.359999 13.5181 0.669999 14.1181 1.29C14.7181 1.89 15.0181 2.66 15.0181 3.6C15.0181 4.7 14.5781 5.95 13.6981 7.35C12.8181 8.75 11.4381 10.11 9.55813 11.43L8.83813 8.82Z" fill="white"/>
</svg>
