<svg width="70" height="71" viewBox="0 0 70 71" fill="none" xmlns="http://www.w3.org/2000/svg">
<path d="M35 5.84908C18.9175 5.84908 5.83334 18.9332 5.83334 35.0157V47.0995C5.83334 50.0862 8.44959 52.5157 11.6667 52.5157H14.5833C15.3569 52.5157 16.0988 52.2085 16.6457 51.6615C17.1927 51.1145 17.5 50.3726 17.5 49.5991V34.5987C17.5 33.8251 17.1927 33.0832 16.6457 32.5363C16.0988 31.9893 15.3569 31.682 14.5833 31.682H11.935C13.5567 20.3945 23.2692 11.6824 35 11.6824C46.7308 11.6824 56.4434 20.3945 58.065 31.682H55.4167C54.6431 31.682 53.9013 31.9893 53.3543 32.5363C52.8073 33.0832 52.5 33.8251 52.5 34.5987V52.5157C52.5 55.7328 49.8838 58.3491 46.6667 58.3491H40.8333V55.4324H29.1667V64.1824H46.6667C53.1008 64.1824 58.3334 58.9499 58.3334 52.5157C61.5504 52.5157 64.1667 50.0862 64.1667 47.0995V35.0157C64.1667 18.9332 51.0825 5.84908 35 5.84908Z" fill="#2F9C95"/>
</svg>
