<svg width="70" height="71" viewBox="0 0 70 71" fill="none" xmlns="http://www.w3.org/2000/svg">
<path d="M58.4062 54.7648C58.4199 54.7443 58.4404 54.7238 58.4541 54.7032C62.9316 49.3781 65.625 42.5148 65.625 35.0157C65.625 27.5167 62.9316 20.6534 58.4609 15.3282C58.4473 15.3077 58.4268 15.2941 58.4131 15.2736C58.3379 15.1847 58.2695 15.1027 58.1943 15.0206C58.167 14.9865 58.1396 14.9591 58.1123 14.9249L57.832 14.6036L57.8252 14.5968C57.7227 14.4806 57.6133 14.3644 57.5107 14.2482L57.5039 14.2413C57.2852 14.0089 57.0664 13.7765 56.8408 13.5509L56.834 13.5441L56.5059 13.2159L56.4854 13.1954C56.3828 13.0929 56.2803 12.9972 56.1777 12.9015C56.1436 12.8673 56.1094 12.8331 56.0684 12.799C56 12.7306 55.9316 12.6691 55.8633 12.6075C55.8428 12.587 55.8154 12.5665 55.7949 12.5392C50.3398 7.48059 43.0322 4.39075 35 4.39075C26.9678 4.39075 19.6602 7.48059 14.1982 12.5392C14.1777 12.5597 14.1504 12.5802 14.1299 12.6075C14.0615 12.6691 13.9932 12.7374 13.9248 12.8058C13.8906 12.84 13.8564 12.8741 13.8154 12.9083C13.7129 13.004 13.6104 13.1066 13.5078 13.2023L13.4873 13.2228L13.1592 13.5509L13.1523 13.5577C12.9268 13.7833 12.708 14.0157 12.4893 14.2482L12.4824 14.255C12.373 14.3712 12.2705 14.4874 12.168 14.6036L12.1611 14.6105C12.0654 14.713 11.9697 14.8224 11.8809 14.9318C11.8535 14.9659 11.8262 14.9933 11.7988 15.0275C11.7236 15.1095 11.6553 15.1984 11.5801 15.2804C11.5664 15.3009 11.5459 15.3146 11.5322 15.3351C7.06836 20.6534 4.375 27.5167 4.375 35.0157C4.375 42.5148 7.06836 49.3781 11.5391 54.7032C11.5527 54.7238 11.5732 54.7443 11.5869 54.7648L11.7988 55.0177C11.8262 55.0519 11.8535 55.0792 11.8809 55.1134L12.1611 55.4347C12.1611 55.4415 12.168 55.4415 12.168 55.4484C12.2705 55.5646 12.373 55.6808 12.4824 55.7902L12.4893 55.797C12.708 56.0294 12.9268 56.2618 13.1455 56.4874L13.1523 56.4943C13.2617 56.6036 13.3643 56.713 13.4736 56.8156L13.4941 56.8361C13.7197 57.0616 13.9521 57.2804 14.1846 57.4923C19.6602 62.5509 26.9678 65.6407 35 65.6407C43.0322 65.6407 50.3398 62.5509 55.8018 57.4923C56.0346 57.2789 56.2626 57.06 56.4854 56.8361L56.5059 56.8156C56.6152 56.7062 56.7246 56.6036 56.8271 56.4943L56.834 56.4874C57.0596 56.2618 57.2783 56.0294 57.4902 55.797L57.4971 55.7902C57.5996 55.674 57.709 55.5646 57.8115 55.4484C57.8115 55.4415 57.8184 55.4415 57.8184 55.4347C57.9141 55.3322 58.0098 55.2228 58.0986 55.1134C58.126 55.0792 58.1533 55.0519 58.1807 55.0177C58.258 54.9353 58.3332 54.851 58.4062 54.7648ZM58.6865 45.0167C57.7432 47.2452 56.499 49.3097 54.9814 51.1827C53.2723 49.7057 51.4036 48.424 49.4102 47.3615C50.2031 44.1554 50.6953 40.6349 50.8252 36.9298H60.6348C60.4297 39.7257 59.7734 42.4396 58.6865 45.0167ZM60.6348 33.1017H50.8252C50.6953 29.3966 50.2031 25.8761 49.4102 22.67C51.4131 21.6036 53.2793 20.3185 54.9814 18.8488C58.2803 22.9091 60.2535 27.8841 60.6348 33.1017ZM45.001 11.3292C47.7148 12.4777 50.1826 14.0636 52.3564 16.0597C51.0936 17.1349 49.7344 18.0915 48.2959 18.9171C47.2227 15.8409 45.8486 13.1681 44.249 11.0284C44.502 11.1241 44.7549 11.2267 45.001 11.3292ZM38.8076 59.2218C38.1787 59.714 37.5498 60.09 36.9141 60.3429V47.6622C39.6265 47.8515 42.2939 48.4555 44.8232 49.4532C44.2559 51.1349 43.5996 52.6866 42.8408 54.088C41.6514 56.3029 40.2568 58.0734 38.8076 59.2218ZM42.8408 15.9435C43.5928 17.3517 44.2559 18.9034 44.8232 20.5782C42.2939 21.576 39.6265 22.18 36.9141 22.3693V9.69544C37.543 9.94836 38.1787 10.3175 38.8076 10.8165C40.2568 11.9581 41.6514 13.7286 42.8408 15.9435ZM36.9141 43.8273V36.9298H46.9971C46.8877 39.9513 46.5117 42.8839 45.8828 45.6661L45.8623 45.7482C42.9935 44.6603 39.9766 44.0127 36.9141 43.8273ZM36.9141 33.1017V26.2042C40.0449 26.0128 43.0527 25.3497 45.8623 24.2833L45.8828 24.3654C46.5117 27.1476 46.8877 30.0734 46.9971 33.1017H36.9141ZM33.0859 36.9298V43.8273C29.9551 44.0187 26.9473 44.6818 24.1377 45.7482L24.1172 45.6661C23.4883 42.8839 23.1123 39.9581 23.0029 36.9298H33.0859ZM23.0029 33.1017C23.1123 30.0802 23.4883 27.1476 24.1172 24.3654L24.1377 24.2833C26.9473 25.3497 29.9482 26.0128 33.0859 26.2042V33.1017H23.0029ZM33.0859 47.6622V60.3361C32.457 60.0831 31.8213 59.714 31.1924 59.215C29.7432 58.0734 28.3418 56.296 27.1523 54.0812C26.4004 52.673 25.7373 51.1212 25.1699 49.4464C27.7129 48.4484 30.3584 47.8536 33.0859 47.6622ZM33.0859 22.3693C30.3735 22.18 27.7061 21.576 25.1768 20.5782C25.7441 18.8966 26.4004 17.3448 27.1592 15.9435C28.3486 13.7286 29.7432 11.9513 31.1992 10.8097C31.8281 10.3175 32.457 9.94153 33.0928 9.6886V22.3693H33.0859ZM24.999 11.3292C25.252 11.2267 25.498 11.1241 25.751 11.0284C24.1514 13.1681 22.7773 15.8409 21.7041 18.9171C20.2686 18.0968 18.9082 17.1398 17.6436 16.0597C19.8174 14.0636 22.2852 12.4777 24.999 11.3292ZM11.3135 25.0148C12.2568 22.7863 13.501 20.7218 15.0186 18.8488C16.7207 20.3185 18.5869 21.6036 20.5898 22.67C19.7969 25.8761 19.3047 29.3966 19.1748 33.1017H9.36523C9.57031 30.3058 10.2266 27.5919 11.3135 25.0148ZM9.36523 36.9298H19.1748C19.3047 40.6349 19.7969 44.1554 20.5898 47.3615C18.5964 48.424 16.7277 49.7057 15.0186 51.1827C11.7197 47.1224 9.74646 42.1474 9.36523 36.9298ZM24.999 58.7023C22.2852 57.5538 19.8174 55.9679 17.6436 53.9718C18.9082 52.8917 20.2686 51.9415 21.7041 51.1144C22.7773 54.1906 24.1514 56.8634 25.751 59.0031C25.498 58.9073 25.2451 58.8048 24.999 58.7023ZM45.001 58.7023C44.748 58.8048 44.502 58.9073 44.249 59.0031C45.8486 56.8634 47.2227 54.1906 48.2959 51.1144C49.7314 51.9347 51.0918 52.8917 52.3564 53.9718C50.1947 55.9596 47.7064 57.5598 45.001 58.7023Z" fill="#2F9C95"/>
</svg>
