<svg width="16" height="12" viewBox="0 0 16 12" fill="none" xmlns="http://www.w3.org/2000/svg">
<path d="M4.06813 11.43C3.20813 11.43 2.47813 11.13 1.87813 10.53C1.27813 9.91 0.978125 9.13 0.978125 8.19C0.978125 7.09 1.41813 5.84 2.29813 4.44C3.17813 3.04 4.55813 1.68 6.43813 0.359999L7.15813 2.97C6.25813 4.11 5.64813 5.1 5.32813 5.94L7.06813 8.55C7.06813 9.01 6.93813 9.47 6.67813 9.93C6.43813 10.37 6.08813 10.73 5.62813 11.01C5.16813 11.29 4.64813 11.43 4.06813 11.43ZM11.9281 11.43C11.0681 11.43 10.3381 11.13 9.73813 10.53C9.13813 9.91 8.83813 9.13 8.83813 8.19C8.83813 7.09 9.27813 5.84 10.1581 4.44C11.0381 3.04 12.4181 1.68 14.2981 0.359999L15.0181 2.97C14.1181 4.11 13.5081 5.1 13.1881 5.94L14.9281 8.55C14.9281 9.01 14.7981 9.47 14.5381 9.93C14.2981 10.37 13.9481 10.73 13.4881 11.01C13.0281 11.29 12.5081 11.43 11.9281 11.43Z" fill="white"/>
</svg>
