<svg width="70" height="71" viewBox="0 0 70 71" fill="none" xmlns="http://www.w3.org/2000/svg">
<path d="M39.8315 24.9489H56.7437C57.5682 24.8614 58.3377 24.4939 58.924 23.9077C59.5102 23.3214 59.8777 22.5519 59.9652 21.7274V14.4795C59.8774 13.6553 59.5098 12.8861 58.9236 12.3001C58.3373 11.7142 57.568 11.3469 56.7437 11.2595H39.8315M30.1685 11.258H13.2562C12.4318 11.3455 11.6623 11.713 11.076 12.2993C10.4898 12.8855 10.1222 13.655 10.0348 14.4795V21.7274C10.1222 22.5519 10.4898 23.3214 11.076 23.9077C11.6623 24.4939 12.4318 24.8614 13.2562 24.9489H30.1685V11.258Z" stroke="#2F9C95" stroke-width="5" stroke-linecap="round" stroke-linejoin="round"/>
<path d="M30.1685 8.03658H39.8314V42.6662H47.0794L35 53.942L22.9192 42.6662H30.1671L30.1685 8.03658Z" stroke="#2F9C95" stroke-width="5" stroke-linecap="round" stroke-linejoin="round"/>
<path d="M30.1685 33.0032H15.6727C14.8482 33.0903 14.0785 33.4575 13.492 34.0435C12.9055 34.6295 12.5376 35.3988 12.4498 36.2232V58.7735C12.5373 59.5981 12.905 60.3678 13.4916 60.9541C14.0781 61.5404 14.848 61.9078 15.6727 61.9949H54.3288C55.1532 61.9075 55.9228 61.5399 56.509 60.9537C57.0953 60.3675 57.4628 59.5979 57.5502 58.7735V36.2232C57.4627 35.3986 57.095 34.6289 56.5084 34.0426C55.9219 33.4563 55.152 33.0889 54.3273 33.0018H39.8315" stroke="#2F9C95" stroke-width="5" stroke-linecap="round" stroke-linejoin="round"/>
</svg>
