<svg width="70" height="71" viewBox="0 0 70 71" fill="none" xmlns="http://www.w3.org/2000/svg">
<path d="M49.5834 61.2657V55.4324C49.5834 52.3382 48.3542 49.3708 46.1663 47.1828C43.9783 44.9949 41.0109 43.7657 37.9167 43.7657H14.5834C11.4892 43.7657 8.5217 44.9949 6.33377 47.1828C4.14585 49.3708 2.91669 52.3382 2.91669 55.4324V61.2657" stroke="#2F9C95" stroke-width="5" stroke-linecap="round" stroke-linejoin="round"/>
<path d="M26.25 32.0991C32.6933 32.0991 37.9166 26.8757 37.9166 20.4324C37.9166 13.9891 32.6933 8.76575 26.25 8.76575C19.8067 8.76575 14.5833 13.9891 14.5833 20.4324C14.5833 26.8757 19.8067 32.0991 26.25 32.0991Z" stroke="#2F9C95" stroke-width="5" stroke-linecap="round" stroke-linejoin="round"/>
<path d="M67.0833 61.2657V55.4324C67.0814 52.8475 66.221 50.3363 64.6373 48.2933C63.0536 46.2503 60.8362 44.7912 58.3333 44.1449" stroke="#2F9C95" stroke-width="5" stroke-linecap="round" stroke-linejoin="round"/>
<path d="M46.6667 9.14491C49.1762 9.78746 51.4005 11.247 52.989 13.2933C54.5774 15.3397 55.4396 17.8565 55.4396 20.447C55.4396 23.0375 54.5774 25.5543 52.989 27.6007C51.4005 29.647 49.1762 31.1065 46.6667 31.7491" stroke="#2F9C95" stroke-width="5" stroke-linecap="round" stroke-linejoin="round"/>
</svg>
